/* XPM */
static char *result[] = {
/* columns rows colors chars-per-pixel */
"40 40 171 2 ",
"   c #EA7913",
".  c #F47F1D",
"X  c #FD7E1D",
"o  c #CC772C",
"O  c #D77A29",
"+  c #C67430",
"@  c #CB7935",
"#  c #E77E25",
"$  c #EB7C25",
"%  c #EA7B2A",
"&  c #E37C29",
"*  c #F27D23",
"=  c #FD7E25",
"-  c #FF7E28",
";  c #E27E30",
":  c #6EAA2F",
">  c #7AAB2C",
",  c #69AE37",
"<  c #71A13C",
"1  c #66B837",
"2  c #6CB339",
"3  c #6BB837",
"4  c #77B638",
"5  c #739F51",
"6  c #70A94C",
"7  c #7BB942",
"8  c #6DA654",
"9  c #7BBB51",
"0  c #76A569",
"q  c #7BB666",
"w  c #7FC45F",
"e  c #81A31F",
"r  c #839626",
"t  c #9D9F39",
"y  c #A69728",
"u  c #B59831",
"i  c #96B12D",
"p  c #8BAE38",
"a  c #84A03B",
"s  c #9BAE38",
"d  c #93A330",
"f  c #8AB83B",
"g  c #A9A62A",
"h  c #A7A334",
"j  c #AAB332",
"k  c #E2801B",
"l  c #F68014",
"z  c #FE8412",
"x  c #FF8B17",
"c  c #FB821F",
"v  c #FE8A1D",
"b  c #DF8522",
"n  c #CD9529",
"m  c #DC8235",
"M  c #D4833B",
"N  c #DD833D",
"B  c #DB893C",
"V  c #CB9F34",
"C  c #DC9838",
"Z  c #ED852B",
"A  c #EC8828",
"S  c #E4882D",
"D  c #F48424",
"F  c #FF8623",
"G  c #FE8A24",
"H  c #F6862B",
"J  c #FE852A",
"K  c #F48C2E",
"L  c #FD8C2C",
"P  c #E59028",
"I  c #FF9326",
"U  c #FF922C",
"Y  c #EF8734",
"T  c #EC8B34",
"R  c #E2873B",
"E  c #F08430",
"W  c #FF8732",
"Q  c #F58D33",
"!  c #FD8D31",
"~  c #F18F3B",
"^  c #FF8D39",
"/  c #ED9530",
"(  c #E39C36",
")  c #F19037",
"_  c #FF9435",
"`  c #FF9933",
"'  c #F0923C",
"]  c #FD913A",
"[  c #FF9F39",
"{  c #C0A92F",
"}  c #C4A73F",
"|  c #84BA57",
" . c #91B354",
".. c #ADA540",
"X. c #89B768",
"o. c #84AE77",
"O. c #C78749",
"+. c #D58443",
"@. c #D48A4F",
"#. c #DE8E49",
"$. c #DB8748",
"%. c #CF8B53",
"&. c #D48C53",
"*. c #D89553",
"=. c #E78F46",
"-. c #EC954C",
";. c #E5984F",
":. c #FB9F4A",
">. c #E09C5E",
",. c #DFA340",
"<. c #D8B645",
"1. c #CFA954",
"2. c #DEA357",
"3. c #EDA046",
"4. c #FAA249",
"5. c #FFA456",
"6. c #FFA75B",
"7. c #F6A15E",
"8. c #D89560",
"9. c #DB9C66",
"0. c #D09868",
"q. c #E49E64",
"w. c #DDA467",
"e. c #DDA475",
"r. c #D7A479",
"t. c #E4A369",
"y. c #E8A868",
"u. c #FBB278",
"i. c #80C241",
"p. c #81CA58",
"a. c #84C862",
"s. c #8CD369",
"d. c #97CC7E",
"f. c #97DE78",
"g. c #A0C67F",
"h. c #B6C97E",
"j. c #C1CD79",
"k. c #EBC770",
"l. c #EEC67E",
"z. c #90BD83",
"x. c #A2B58F",
"c. c #A5B494",
"v. c #EBAF82",
"b. c #E8B286",
"n. c #EBBF9D",
"m. c #F0BE96",
"M. c #A8C09D",
"N. c #ABCF99",
"B. c #AAE298",
"V. c #B5C6A9",
"C. c #BCE1AF",
"Z. c #BCFFA0",
"A. c #DED888",
"S. c #FEC08E",
"D. c #E9C29A",
"F. c #FFC394",
"G. c #FBDC9E",
"H. c #EDC5A2",
"J. c #F0C6A0",
"K. c #F7CBA4",
"L. c #FED4AC",
"P. c #FFD8A9",
"I. c #EED3BE",
"U. c #FFD9B0",
"Y. c #F4D5BC",
"T. c #CFE8BD",
"R. c #D2EDCA",
"E. c #D9FFC8",
"W. c #DBFFC3",
"Q. c #FFE4C9",
"!. c None",
/* pixels */
"!.!.!.!.!.!.!.!.!.!.!.!.!.!.!.!.!.!.!.!.!.!.!.!.!.!.!.!.!.!.!.!.!.!.!.!.!.!.!.!.",
"!.!.!.!.!.!.!.!.!.!.!.!.!.!.!.!.!.!.!.!.!.!.!.!.!.!.!.!.!.!.!.!.!.!.!.!.!.!.!.!.",
"!.!.!.!.!.!.!.!.!.!.!.!.!.!.!.!.!.!.!.!.!.!.!.!.!.!.!.!.!.!.!.!.!.!.!.!.!.!.!.!.",
"!.!.!.!.!.!.!.!.!.!.!.!.!.!.!.!.!.!.!.!.!.!.!.!.!.!.!.!.!.!.!.!.!.!.!.!.!.!.!.!.",
"!.!.!.!.!.!.!.!.!.!.!.!.!.!.!.!.!.!.!.!.!.!.!.!.!.!.!.!.!.!.!.!.!.!.!.!.!.!.!.!.",
"!.!.!.!.!.!.!.!.!.!.!.!.!.!.!.!.!.!.!.!.!.!.!.!.!.!.!.!.!.!.!.!.!.!.!.!.!.!.!.!.",
"!.!.!.!.!.!.!.!.!.!.!.!.!.!.!.!.!.!.!.!.!.!.!.!.!.!.!.!.!.!.!.!.!.!.!.!.!.!.!.!.",
"!.!.!.!.!.!.!.!.!.!.!.!.!.!.!.!.!.!.!.!.!.!.!.!.!.!.!.!.!.!.!.!.!.!.!.!.!.!.!.!.",
"!.!.!.!.!.!.!.!.!.!.!.!.!.!.!.!.!.!.!.!.!.!.!.!.!.!.!.!.!.!.!.!.!.!.!.!.!.!.!.!.",
"!.!.!.!.!.!.!.!.!.!.!.!.!.!.!.!.!.!.!.!.!.!.!.!.!.!.R.M.V.!.!.!.!.!.!.!.!.!.!.!.",
"!.!.!.!.!.!.!.!.!.!.!.!.!.!.!.!.!.!.!.!.!.!.!.!.!.C.z.0 0 T.!.!.!.!.!.!.!.!.!.!.",
"!.!.!.!.!.!.!.!.!.!.!.!.!.!.!.!.!.!.!.!.!.!.!.!.!.X.8 8 q B.E.!.!.!.!.!.!.!.!.!.",
"!.!.!.!.!.!.!.!.!.!.!.!.!.!.!.!.!.!.!.!.U.L.!.!.j. .i.w a.Z.W.!.!.!.!.!.!.!.!.!.",
"!.!.!.!.!.!.!.!.!.!.!.!.!.!.!.!.G.l.w.*.@.*.*.1.h > > : , p.s.z.!.!.!.!.!.!.!.!.",
"!.!.!.!.!.!.!.!.!.!.!.!.!.!.I.D.2.3.4.5.6.5.4.( ( g i i f 3 4 X.!.!.!.!.!.!.!.!.",
"!.!.!.!.!.!.!.!.!.!.!.!.Q.D.r.O.4.[ _ ! F = H ` n j g > > w 3 6 !.!.!.!.!.!.!.!.",
"!.!.!.!.!.!.!.!.!.!.!.K.9.;.4.[ G v v G J J L Q C V h s f 2 3 f.!.!.!.!.!.!.!.!.",
"!.!.!.!.!.!.!.!.!.Q.m.t.B K I x v G G F F J J K S ( } h p : 1 p.T.!.!.!.!.!.!.!.",
"!.!.!.!.!.!.!.!.L.y.$.T L G v F K Q K L J J J G S ( { y d p 7 | x.!.!.!.!.!.!.!.",
"!.!.!.!.!.!.!.L.q.N % U U G L ! ) ~ Q ! L G F G G P n u t a 6 5 c.!.!.!.!.!.!.!.",
"!.!.!.!.!.!.L.w.-.T L G F D ! ] ' ~ Q ! J G G G _ b C k.A.h.g.N.!.!.!.!.!.!.!.!.",
"!.!.!.!.!.L.w.M ' L L G D ! ] E Q Q L G G G G J # b y.!.!.!.!.!.!.!.!.!.!.!.!.!.",
"!.!.!.!.P.t.B S A D L _ W ^ ^ * J F v F F F H E M *.P.!.!.!.!.!.!.!.!.!.!.!.!.!.",
"!.!.!.!.y.m A ` I D U L H H W J G F F F D Y R +.q.K.!.!.!.!.!.!.!.!.!.!.!.!.!.!.",
"!.!.!.v.M Q l x z z v F J J - = X = D # O +.8.b.!.!.!.!.!.!.!.!.!.!.!.!.!.!.!.!.",
"!.!.!.e.+ &   v z z z . . $ % % % & O @ %.b.!.!.!.!.!.!.!.!.!.!.!.!.!.!.!.!.!.!.",
"!.!.!.n.0.*.o O D D D $ ; N @.&.@.q.S.!.!.!.!.!.!.!.!.!.!.!.!.!.!.!.!.!.!.!.!.!.",
"!.!.!.!.Y.D.e.y.#.=.-.7.u.F.L.!.!.!.!.!.!.!.!.!.!.!.!.!.!.!.!.!.!.!.!.!.!.!.!.!.",
"!.!.!.!.!.!.!.!.!.!.!.!.!.!.!.!.!.!.!.!.!.!.!.!.!.!.!.!.!.!.!.!.!.!.!.!.!.!.!.!.",
"!.!.!.!.!.!.!.!.!.!.!.!.!.!.!.!.!.!.!.!.!.!.!.!.!.!.!.!.!.!.!.!.!.!.!.!.!.!.!.!.",
"!.!.!.!.!.!.!.!.!.!.!.!.!.!.!.!.!.!.!.!.!.!.!.!.!.!.!.!.!.!.!.!.!.!.!.!.!.!.!.!.",
"!.!.!.!.!.!.!.!.!.!.!.!.!.!.!.!.!.!.!.!.!.!.!.!.!.!.!.!.!.!.!.!.!.!.!.!.!.!.!.!.",
"!.!.!.!.!.!.!.!.!.!.!.!.!.!.!.!.!.!.!.!.!.!.!.!.!.!.!.!.!.!.!.!.!.!.!.!.!.!.!.!.",
"!.!.!.!.!.!.!.!.!.!.!.!.!.!.!.!.!.!.!.!.!.!.!.!.!.!.!.!.!.!.!.!.!.!.!.!.!.!.!.!.",
"!.!.!.!.!.!.!.!.!.!.!.!.!.!.!.!.!.!.!.!.!.!.!.!.!.!.!.!.!.!.!.!.!.!.!.!.!.!.!.!.",
"!.!.!.!.!.!.!.!.!.!.!.!.!.!.!.!.!.!.!.!.!.!.!.!.!.!.!.!.!.!.!.!.!.!.!.!.!.!.!.!.",
"!.!.!.!.!.!.!.!.!.!.!.!.!.!.!.!.!.!.!.!.!.!.!.!.!.!.!.!.!.!.!.!.!.!.!.!.!.!.!.!.",
"!.!.!.!.!.!.!.!.!.!.!.!.!.!.!.!.!.!.!.!.!.!.!.!.!.!.!.!.!.!.!.!.!.!.!.!.!.!.!.!.",
"!.!.!.!.!.!.!.!.!.!.!.!.!.!.!.!.!.!.!.!.!.!.!.!.!.!.!.!.!.!.!.!.!.!.!.!.!.!.!.!.",
"!.!.!.!.!.!.!.!.!.!.!.!.!.!.!.!.!.!.!.!.!.!.!.!.!.!.!.!.!.!.!.!.!.!.!.!.!.!.!.!."
};
