/* XPM */
static char *result[] = {
/* columns rows colors chars-per-pixel */
"40 40 148 2 ",
"   c #716336",
".  c #786B42",
"X  c #B1682D",
"o  c #B76F37",
"O  c #B76D38",
"+  c #B66E3D",
"@  c #BF6B3D",
"#  c #B67035",
"$  c #BC763C",
"%  c #CC580A",
"&  c #CB6518",
"*  c #D2681D",
"=  c #D26D1D",
"-  c #DA7116",
";  c #E8690B",
":  c #EB6A0B",
">  c #F26B09",
",  c #EB6F17",
"<  c #E46D1A",
"1  c #E86F1B",
"2  c #F46D12",
"3  c #F46E1C",
"4  c #E57614",
"5  c #E97318",
"6  c #E9741B",
"7  c #E37D1E",
"8  c #E97B1A",
"9  c #F57311",
"0  c #FF7511",
"q  c #FF7E17",
"w  c #F7741B",
"e  c #FB701D",
"r  c #F9701E",
"t  c #FA791B",
"y  c #CA6F20",
"u  c #C6692D",
"i  c #D96622",
"p  c #D36A22",
"a  c #D76F26",
"s  c #DE6D29",
"d  c #DF6C2A",
"f  c #CB7B2C",
"g  c #D07724",
"h  c #D57821",
"j  c #DA732E",
"k  c #DC752F",
"l  c #D67829",
"z  c #DF7928",
"x  c #DC7A28",
"c  c #C37136",
"v  c #C47A34",
"b  c #CC7831",
"n  c #CE733E",
"m  c #C37A3F",
"M  c #D07233",
"N  c #DC7831",
"B  c #D47C3B",
"V  c #EF6E21",
"C  c #E26C2B",
"Z  c #E76E2D",
"A  c #EF7023",
"S  c #E27F21",
"D  c #EE732E",
"F  c #EE7828",
"G  c #F27420",
"H  c #F27720",
"J  c #F47126",
"K  c #FA7020",
"L  c #FB7725",
"P  c #FF7525",
"I  c #F67B24",
"U  c #F17C24",
"Y  c #F2782A",
"T  c #EA7B32",
"R  c #E37C39",
"E  c #A57443",
"W  c #A8794C",
"Q  c #B67542",
"!  c #BD7140",
"~  c #BB764D",
"^  c #B77A4B",
"/  c #BE7F4D",
"(  c #C37640",
")  c #CD7348",
"_  c #CC7751",
"`  c #D07A50",
"'  c #7A8363",
"]  c #D5803D",
"[  c #ED8037",
"{  c #FF8E33",
"}  c #FF8D38",
"|  c #FF963A",
" . c #B9844F",
".. c #CF8143",
"X. c #CC8046",
"o. c #D08646",
"O. c #D7834F",
"+. c #C98753",
"@. c #D0825B",
"#. c #E98445",
"$. c #E28841",
"%. c #CA9568",
"&. c #D79468",
"*. c #CC9B73",
"=. c #C89F71",
"-. c #E28F64",
";. c #DDAA74",
":. c #D4A17B",
">. c #E0AA7E",
",. c #F3A97B",
"<. c #808B87",
"1. c #839284",
"2. c #889A94",
"3. c #8B9A95",
"4. c #889E97",
"5. c #9CA387",
"6. c #94A19D",
"7. c #99A29F",
"8. c #A1AA8C",
"9. c #A9BFB1",
"0. c #DAA685",
"q. c #DBAD8A",
"w. c #DFB583",
"e. c #EDAD80",
"r. c #E8AC86",
"t. c #F7B487",
"y. c #E9BC93",
"u. c #FAB890",
"i. c #F1B99A",
"p. c #F7C39B",
"a. c #FFCD99",
"s. c #EEC8AA",
"d. c #FEC8A9",
"f. c #FFC8B2",
"g. c #FFDFBA",
"h. c #FFDFBE",
"j. c #B7C7C2",
"k. c #BDCBC6",
"l. c #BBCDC7",
"z. c #C8D9CA",
"x. c #CFDED9",
"c. c #D5DDDA",
"v. c #FFD7C5",
"b. c #CDE0DA",
"n. c #D5E7D7",
"m. c #FFE6D3",
"M. c #EEFBF6",
"N. c None",
/* pixels */
"N.N.N.N.N.N.N.N.N.N.N.N.N.N.N.N.N.N.N.N.N.N.N.N.N.N.N.N.N.N.N.N.N.N.N.N.N.N.N.N.",
"N.N.N.N.N.N.N.N.N.N.N.N.N.N.N.N.N.N.N.N.N.N.N.N.N.N.N.N.N.N.N.N.N.N.N.N.N.N.N.N.",
"N.N.N.N.N.N.N.N.N.N.N.N.N.N.N.N.N.N.N.N.N.N.N.N.N.N.N.N.N.N.N.N.N.N.N.N.N.N.N.N.",
"N.N.N.N.N.N.N.N.N.N.N.N.N.N.N.N.N.N.N.N.N.N.N.N.N.N.N.N.N.N.N.N.N.N.N.N.N.N.N.N.",
"N.N.N.N.N.N.N.N.N.N.N.N.N.N.N.N.N.N.N.N.N.N.N.N.N.N.N.N.N.N.N.N.N.N.N.N.N.N.N.N.",
"N.N.N.N.N.N.N.N.N.N.N.N.N.N.N.N.N.N.N.N.N.N.N.N.N.N.N.N.N.N.N.N.N.N.N.N.N.N.N.N.",
"N.N.N.N.N.N.N.N.N.N.N.N.N.N.N.N.N.N.N.N.N.N.N.N.N.N.N.N.N.N.N.N.N.N.N.N.N.N.N.N.",
"N.N.N.N.N.N.N.N.N.N.N.N.N.N.N.N.N.N.N.N.N.N.N.N.N.N.N.N.N.N.N.N.N.N.N.N.N.N.N.N.",
"N.N.N.N.N.N.N.N.N.N.N.N.N.N.N.N.N.N.N.N.N.N.N.N.N.N.N.N.N.N.N.N.N.N.N.N.N.N.N.N.",
"N.N.N.N.N.N.N.N.N.N.N.N.N.N.N.N.N.N.N.N.N.N.N.N.N.N.N.N.N.N.N.N.N.N.N.N.N.N.N.N.",
"N.N.N.N.N.N.N.N.N.N.N.N.N.N.N.N.N.N.N.N.N.N.N.N.N.N.N.N.N.N.N.N.N.N.N.N.N.N.N.N.",
"N.N.N.N.N.N.N.N.N.N.N.N.N.N.N.N.N.7.N.N.N.N.N.N.N.N.N.N.N.N.N.N.N.N.N.N.N.N.N.N.",
"N.N.N.N.N.N.N.N.N.N.N.N.N.N.N.N.N.3.k.N.N.N.c.N.N.N.N.N.N.N.N.N.N.N.N.N.N.N.N.N.",
"N.N.N.N.N.N.N.N.N.N.N.N.N.N.N.N.N.b.2.N.x.M.<.N.N.N.N.N.N.N.N.N.N.N.N.N.N.N.N.N.",
"N.N.N.N.N.N.N.N.N.N.N.N.N.N.N.N.N.N.4.N.l.j.6.N.N.N.N.N.N.N.N.N.N.N.N.N.N.N.N.N.",
"N.N.N.N.N.N.N.N.N.N.N.N.N.N.N.N.N.N.9.n.z.1.N.N.N.N.N.N.N.N.N.N.N.N.N.N.N.N.N.N.",
"N.N.N.N.N.N.N.N.N.N.N.N.N.N.N.N.N.N.N.' 8.5.N.N.N.N.N.N.N.N.N.N.N.N.N.N.N.N.N.N.",
"N.N.N.N.N.N.N.N.N.N.N.N.N.N.N.N.N.N.N.  . N.N.N.N.N.N.N.N.N.N.N.N.N.N.N.N.N.N.N.",
"N.N.N.N.N.N.N.N.N.N.N.N.N.N.N.N.N.N.=. .E W y.N.N.N.N.N.N.N.N.N.N.N.N.N.N.N.N.N.",
"N.N.N.N.N.N.N.N.N.N.N.N.N.N.N.N.N.:.X.B c ( + 0.N.N.N.N.N.N.N.N.N.N.N.N.N.N.N.N.",
"N.N.N.N.N.N.N.N.N.N.N.N.N.N.N.N.d.O.[ F T R u ~ N.N.N.N.N.N.N.N.N.N.N.N.N.N.N.N.",
"N.N.N.N.N.N.N.N.N.N.N.N.N.N.N.N.u.#.G { } % j ! N.N.N.N.N.N.N.N.N.N.N.N.N.N.N.N.",
"N.N.N.N.N.N.N.N.N.N.N.N.N.N.N.N.t.k | 0 : U & o N.N.N.N.N.N.N.N.N.N.N.N.N.N.N.N.",
"N.N.N.N.N.N.N.N.N.N.N.N.N.N.N.N.e.N ; q 9 5 z # N.N.N.N.N.N.N.N.N.N.N.N.N.N.N.N.",
"N.N.N.N.N.N.N.N.N.N.N.N.N.N.N.N.r.M I > t 6 = $ N.N.N.N.N.N.N.N.N.N.N.N.N.N.N.N.",
"N.N.N.N.N.N.N.N.N.N.N.N.N.N.N.N.i.n Y 2 w 1 * O N.N.N.N.N.N.N.N.N.N.N.N.N.N.N.N.",
"N.N.N.N.N.N.N.N.N.N.N.N.N.N.N.N.f.) D e r V i @ N.N.N.N.N.N.N.N.N.N.N.N.N.N.N.N.",
"N.N.N.N.N.N.N.N.N.N.N.N.N.N.N.N.v._ Z P K J C ` N.N.N.N.N.N.N.N.N.N.N.N.N.N.N.N.",
"N.N.N.N.N.N.N.N.N.N.N.N.N.N.N.N.m.@.s L 3 A d -.N.N.N.N.N.N.N.N.N.N.N.N.N.N.N.N.",
"N.N.N.N.N.N.N.N.N.N.N.N.N.N.N.N.N.&.a H , < p ,.N.N.N.N.N.N.N.N.N.N.N.N.N.N.N.N.",
"N.N.N.N.N.N.N.N.N.N.N.N.N.N.N.N.N.;.g 8 4 - y a.N.N.N.N.N.N.N.N.N.N.N.N.N.N.N.N.",
"N.N.N.N.N.N.N.N.N.N.N.N.N.N.N.N.N.w.f S 7 h v N.N.N.N.N.N.N.N.N.N.N.N.N.N.N.N.N.",
"N.N.N.N.N.N.N.N.N.N.N.N.N.N.N.N.N.g.o.l x b %.N.N.N.N.N.N.N.N.N.N.N.N.N.N.N.N.N.",
"N.N.N.N.N.N.N.N.N.N.N.N.N.N.N.N.N.N.+.] $.X s.N.N.N.N.N.N.N.N.N.N.N.N.N.N.N.N.N.",
"N.N.N.N.N.N.N.N.N.N.N.N.N.N.N.N.N.N.>.m ../ N.N.N.N.N.N.N.N.N.N.N.N.N.N.N.N.N.N.",
"N.N.N.N.N.N.N.N.N.N.N.N.N.N.N.N.N.N.h.^ Q p.N.N.N.N.N.N.N.N.N.N.N.N.N.N.N.N.N.N.",
"N.N.N.N.N.N.N.N.N.N.N.N.N.N.N.N.N.N.N.q.*.N.N.N.N.N.N.N.N.N.N.N.N.N.N.N.N.N.N.N.",
"N.N.N.N.N.N.N.N.N.N.N.N.N.N.N.N.N.N.N.N.N.N.N.N.N.N.N.N.N.N.N.N.N.N.N.N.N.N.N.N.",
"N.N.N.N.N.N.N.N.N.N.N.N.N.N.N.N.N.N.N.N.N.N.N.N.N.N.N.N.N.N.N.N.N.N.N.N.N.N.N.N.",
"N.N.N.N.N.N.N.N.N.N.N.N.N.N.N.N.N.N.N.N.N.N.N.N.N.N.N.N.N.N.N.N.N.N.N.N.N.N.N.N."
};
