/* XPM */
static char *result[] = {
/* columns rows colors chars-per-pixel */
"40 40 182 2 ",
"   c #391F6F",
".  c #391F71",
"X  c #3A206F",
"o  c #3C2275",
"O  c #3E2678",
"+  c #3F287C",
"@  c #4F1D6A",
"#  c #671C64",
"$  c #691B64",
"%  c #7F1F61",
"&  c #56226B",
"*  c #412677",
"=  c #492475",
"-  c #412779",
";  c #42297D",
":  c #572A7B",
">  c #AB1A58",
",  c #BE175B",
"<  c #BE1D5B",
"1  c #B51A55",
"2  c #BA225E",
"3  c #97256C",
"4  c #BF2564",
"5  c #A8347E",
"6  c #C0175E",
"7  c #C01C5D",
"8  c #CD0564",
"9  c #C80962",
"0  c #D6076E",
"q  c #D20A6C",
"w  c #C21E63",
"e  c #CD1B6F",
"r  c #D0126B",
"t  c #DD0977",
"y  c #CE1C70",
"u  c #D81276",
"i  c #E10E7D",
"p  c #C42164",
"a  c #C42469",
"s  c #C4296B",
"d  c #CA336F",
"f  c #CD2C74",
"g  c #CB2672",
"h  c #D5287B",
"j  c #D2317D",
"k  c #D3417E",
"l  c #422A82",
"z  c #4B2C81",
"x  c #4D2680",
"c  c #562C84",
"v  c #582C84",
"b  c #572F88",
"n  c #4D3085",
"m  c #533387",
"M  c #573188",
"N  c #593289",
"B  c #59388A",
"V  c #613D8F",
"C  c #694195",
"Z  c #704797",
"A  c #BB3894",
"S  c #E70C81",
"D  c #EB0A86",
"F  c #EB0A88",
"G  c #ED128C",
"H  c #EE188F",
"J  c #E51181",
"K  c #F0198F",
"L  c #EF1D91",
"P  c #F11B92",
"I  c #DE2F83",
"U  c #D53281",
"Y  c #DD3284",
"T  c #DE3B8A",
"R  c #DF3D91",
"E  c #E23486",
"W  c #E43A8C",
"Q  c #F32296",
"!  c #F92799",
"~  c #F72B9A",
"^  c #F92D9B",
"/  c #F62898",
"(  c #E53C92",
")  c #ED3B9B",
"_  c #F5349C",
"`  c #FA339F",
"'  c #F13B9E",
"]  c #FB37A0",
"[  c #FC3CA4",
"{  c #FA3EA4",
"}  c #A4449A",
"|  c #8D5DA9",
" . c #986BB0",
".. c #D74E8B",
"X. c #DF4798",
"o. c #E74191",
"O. c #E15997",
"+. c #C84EA6",
"@. c #DD49A1",
"#. c #C952AB",
"$. c #C756AF",
"%. c #C65CB1",
"&. c #FE45AB",
"*. c #F54BA9",
"=. c #FA4BAD",
"-. c #F247A5",
";. c #EB58A9",
":. c #F453AD",
">. c #F759AF",
",. c #FF4CB0",
"<. c #F751B3",
"1. c #FE53B3",
"2. c #F55AB1",
"3. c #FE5BB6",
"4. c #FC56B8",
"5. c #FE5BB9",
"6. c #C96DBC",
"7. c #CA66B7",
"8. c #C970BE",
"9. c #E66AA6",
"0. c #ED67B3",
"q. c #F360B1",
"w. c #FB61B6",
"e. c #F463B9",
"r. c #FD64BC",
"t. c #FD6ABE",
"y. c #F368B4",
"u. c #ED75B9",
"i. c #F373BC",
"p. c #F37BBD",
"a. c #F872BF",
"s. c #FB5FC3",
"d. c #C975C4",
"f. c #CA7DCA",
"g. c #FB65C1",
"h. c #FE6CC2",
"j. c #FB66CA",
"k. c #F576C1",
"l. c #FF73C4",
"z. c #F47DC4",
"x. c #F87BC5",
"c. c #FC74CA",
"v. c #FE7CCA",
"b. c #FC6DD2",
"n. c #FD7BDE",
"m. c #FB75D8",
"M. c #F380BF",
"N. c #C985CC",
"B. c #C888CE",
"V. c #C98DD1",
"C. c #C797D5",
"Z. c #F583C5",
"A. c #FE83CE",
"S. c #F885CA",
"D. c #FC84D3",
"F. c #FE8BD2",
"G. c #FD8CDA",
"H. c #FA91D6",
"J. c #FC93DB",
"K. c #F798D7",
"L. c #D2A2D9",
"P. c #FC82E3",
"I. c #FD8BE8",
"U. c #FD93E2",
"Y. c #FD9BE5",
"T. c #FD9EEB",
"R. c #FD90ED",
"E. c #FE99F0",
"W. c #E6A1E7",
"Q. c #FDA5E5",
"!. c #FBA2EC",
"~. c #FEAAEC",
"^. c #FDB2ED",
"/. c #FDA5F1",
"(. c #FEADF4",
"). c #FFBAF9",
"_. c #FEB6F5",
"`. c #FFC5FC",
"'. c #FECAF7",
"]. c #FBD4FA",
"[. c #FEE1FC",
"{. c None",
/* pixels */
"{.{.{.{.{.{.{.{.{.{.{.{.{.{.{.{.{.{.{.{.{.{.{.{.{.{.{.{.{.{.{.{.{.{.{.{.{.{.{.{.",
"{.{.{.{.{.{.{.{.{.{.{.{.{.{.{.{.{.{.{.{.{.{.{.{.{.{.{.{.{.{.{.{.{.{.{.{.{.{.{.{.",
"O O O ; ; z n n n l + + l l l l l l l l l l l l l l l ; l + ; ; ; + ; + O O O o ",
"O - - ; m V C Z V B M m M M m N N N N N b m b z N b v v v v v v x - O + O O o o ",
"O O - n C  .W.(./.E.R.R.I.P.P.n.n.n.m.b.b.j.j.j.j.2.5.<.<.<.=.=.-.A z O O O O o ",
"O - ; B | ].`.).(././.!.!.!.!.!.T.Y.Y.Y.U.J.P.G.n.m.c.r.<.<.=.=.*.2.5 ; O O O o ",
"O O ; B C.].[.'._.Q.K.K.H.H.H.F.F.D.S.S.z.z.z.z.z.i.i.t.t.t.e.r.a.( < & o + O O ",
"O O - n L.'.'.K.o.U g e e e y e y y y y y y y y e e e e e e e e w.I 2 # O O O o ",
"O O * z C.`.).p.h r 8 8 0 0 0 0 0 0 0 0 0 0 0 0 q q 0 q 8 9 8 9 w.E 7 # * O o o ",
"* O O O B.).^.0.u i S F D D D D F F F F F F F F F F D F D D t q w.j 7 # - o O o ",
"; ; + + V.).~.2.J F F G F G G F G G F G F G F G F F G F G D D i 3.E 7 # O O o O ",
"O O + ; B.(.~.e.H H G H G H G H G G G K G K H G H G H G H G H G 3.E 2 $ O O O o ",
"; ; ; ; B.(.Q.e.H H P P H P P P K P P K P P H P K P H P K K H H 1.Y , $ o + o o ",
"; ; ; l N.(.Q.r.P P P P P P P P P P P P P P P P P P P P P Q K H 3.I , $ o . + o ",
"; ; ; ; N.~.Y.g.Q Q Q Q Q Q Q Q Q Q ! Q Q Q Q Q Q Q Q Q Q Q / Q 4.I 6 # o + o + ",
"; ; ; l f./.Y.g./ ! ! ! ~ ! ! ! ! ~ ! ! ! ! ~ ! ! ! ~ ~ ~ / / / s.I 6 # + . o o ",
"; ; ; ; f.T.Y.g.^ ^ ~ ~ ~ ^ ^ ^ ~ ~ ~ ~ ^ ^ ^ ^ ^ ^ ^ ^ ^ ^ ^ _ 3.E 6 $ o o o o ",
"; ; ; ; d.Y.J.t.` ^ ^ ^ ^ ^ ^ ^ ` ^ ` ` ^ ^ ^ _ ^ ^ ^ ^ ^ ^ ^ ^ 5.E 6 $ o o o o ",
"; ; ; l d.U.J.g.` ] ] ` ] ` ] ] ` ` ` ` _ ` ` ` ` ` ` _ ` ` _ _ 5.E 6 $ o o o o ",
"; ; ; ; 6.U.J.g.] ] ] ] ] ] ] ] ` ` ` ` &.` ` ` ` ` ` &.&.` ` ` 5.E 6 $ o o o o ",
"; ; - ; 8.G.G.h.] [ [ [ [ [ [ [ &.' [ ` [ [ ` [ ` _ ` _ ` _ ` &.4.W w $ . o o o ",
"; ; ; l 6.P.F.h.[ [ [ [ [ [ [ [ ` &.[ [ &.[ [ [ &.&.&.&.&.&.` &.4.W 6 $ o o o o ",
"; ; ; ; 7.D.v.g.&.[ &.[ [ &.&.&.&.&.&.&.&.&.&.&.&.&.&.&.&.&.&.&.s.E r $ o o . o ",
"; ; ; ; %.c.c.s.,.&.,.,.,.&.&.&.=.=.&.&.&.&.&.&.&.&.&.&.&.&.&.*.4.T w @ o o O . ",
"; ; ; ; $.l.h.r.,.,.,.,.,.,.,.,.,.,.=.=.,.,.,.=.=.=.=.=.,.,.,.=.5.W w $ o o + . ",
"; ; ; ; $.h.h.r.1.,.,.,.1.,.1.,.1.,.1.1.,.1.,.1.1.1.1.1.1.,.,.1.5.W w $ o o . . ",
"; ; ; ; $.h.h.g.1.1.1.1.1.1.1.1.1.1.1.1.1.1.1.1.1.1.1.1.1.1.1.1.4.( p $ . o . . ",
"; ; ; ; #.g.h.g.1.3.1.1.4.1.1.5.5.5.r.5.5.r.3.3.>.1.3.1.1.4.1.3.3.W p $ . . . o ",
"- ; ; ; #.r.g.h.3.3.3.r.t.t.l.v.v.v.v.v.v.v.v.v.v.l.h.r.r.3.5.3.4.( p $   o o . ",
"- - - ; #.r.r.t.r.h.l.v.v.A.v.v.A.A.A.D.A.A.A.A.v.A.v.v.v.l.t.5.5.o.p $ o     . ",
"- - ; = +.w.g.h.h.v.v.A.A.D.F.F.F.F.F.F.F.F.F.F.F.A.F.A.v.v.l.g.4.( p #   .     ",
"+ = * ; +.r.r.h.h.g.t.t.h.h.h.l.h.l.h.l.l.h.l.h.h.h.g.g.t.g.r.r.1.o.a $       . ",
"- * * * } 5.:.<.1.2.2.1.1.>.>.:.2.:.:.=.:.*.:.0.z.p.2.u.Z.Z.u.;.h T a @ . .   . ",
"* * * + : X.) _ { *.:.>.q.0.i.p.p.p.Z.S.Z.Z.Z.p.u.9.9.O...k d 1 1 1 3   . . .   ",
"- * * * * : A ) ' ' ' ) ) ( W W W T T j j j j d f g s 4 4 2 2 1 > % * o   .   * ",
"+ * ; * * * * = = = = = = = = = = = = = = = = = = = = * = * = = = * * * * * . . ",
"* * O - - - - - * * ; - * O * * O O O O O * * O O O O - - - - * O O * o o o o o ",
"* O - - O * - ; * * O * O * * O * ; - - O O - ; - - O ; O * - ; - - * O X o . * ",
"{.{.{.{.{.{.{.{.{.{.{.{.{.{.{.{.{.{.{.{.{.{.{.{.{.{.{.{.{.{.{.{.{.{.{.{.{.{.{.{.",
"{.{.{.{.{.{.{.{.{.{.{.{.{.{.{.{.{.{.{.{.{.{.{.{.{.{.{.{.{.{.{.{.{.{.{.{.{.{.{.{."
};
