/* XPM */
static char *b93808b745c54383eb1422f7bfb5c7bbNVrkfe3PZR7jj514[] = {
/* columns rows colors chars-per-pixel */
"40 40 174 2 ",
"   c None",
".  c #ED480B",
"X  c #ED490B",
"o  c #EE480B",
"O  c #EF480B",
"+  c #EE490B",
"@  c #ED480C",
"#  c #ED490C",
"$  c #EE480C",
"%  c #EF480C",
"&  c #EE490C",
"*  c #EE480D",
"=  c #EE490D",
"-  c #EF490D",
";  c #ED4B0C",
":  c #ED4B0D",
">  c #EE4A0C",
",  c #EE4B0D",
"<  c #EC4B0F",
"1  c #ED4B0F",
"2  c #EE4B0E",
"3  c #EE4A0F",
"4  c #ED4C0D",
"5  c #EE4C0D",
"6  c #EE4C0E",
"7  c #EE4E0F",
"8  c #EE4B10",
"9  c #ED4C11",
"0  c #EE4C11",
"q  c #ED4F10",
"w  c #EF4E14",
"e  c #EE4E15",
"r  c #ED4F17",
"t  c #EF5110",
"y  c #EE5011",
"u  c #EE5111",
"i  c #EE5211",
"p  c #EE5513",
"a  c #ED5117",
"s  c #EE5815",
"d  c #EE5219",
"f  c #EE521B",
"g  c #EF531C",
"h  c #EE541D",
"j  c #EE551D",
"k  c #EE551E",
"l  c #EE611A",
"z  c #EE621B",
"x  c #ED691F",
"c  c #ED6C1F",
"v  c #EF5E2A",
"b  c #F05620",
"n  c #E7602F",
"m  c #EF602D",
"M  c #F0602D",
"N  c #F0622E",
"B  c #ED7024",
"V  c #ED7425",
"C  c #EF7627",
"Z  c #EC6330",
"A  c #EF6331",
"S  c #EE6938",
"D  c #EF6938",
"F  c #EF6A39",
"G  c #F06B3B",
"H  c #DF7F5F",
"J  c #EF6F41",
"K  c #F06F41",
"L  c #F07041",
"P  c #F0794D",
"I  c #F07A4E",
"U  c #F07A4F",
"Y  c #F07B4F",
"T  c #F07B51",
"R  c #F07C51",
"E  c #F07E53",
"W  c #ED842F",
"Q  c #EE8630",
"!  c #ED8932",
"~  c #ED8A33",
"^  c #ED8F36",
"/  c #ED9539",
"(  c #EE973B",
")  c #EC9E3E",
"_  c #F1835A",
"`  c #F1845C",
"'  c #F1865F",
"]  c #EEA241",
"[  c #EDA542",
"{  c #EDA543",
"}  c #EDA744",
"|  c #EDAB46",
" . c #EDB54C",
".. c #ECB74D",
"X. c #ECB64E",
"o. c #EDB84E",
"O. c #ECBB4F",
"+. c #EDBC4F",
"@. c #EBBD50",
"#. c #EDBE51",
"$. c #D7907A",
"%. c #D7927C",
"&. c #EE8760",
"*. c #F08760",
"=. c #F08861",
"-. c #F18962",
";. c #F18A63",
":. c #F28E68",
">. c #F28F6B",
",. c #F2916D",
"<. c #F2936F",
"1. c #F39370",
"2. c #F29672",
"3. c #F29674",
"4. c #F39A79",
"5. c #F29A7A",
"6. c #F29E7F",
"7. c #ECC053",
"8. c #EDC254",
"9. c #ECC957",
"0. c #EDC957",
"q. c #EEC857",
"w. c #EDC858",
"e. c #ECC958",
"r. c #EDC958",
"t. c #EEC858",
"y. c #ECCA58",
"u. c #EDCA58",
"i. c #D59886",
"p. c #F5A082",
"a. c #F4A182",
"s. c #F3A284",
"d. c #F5A589",
"f. c #F3AC8F",
"g. c #F4AC92",
"h. c #F5AD92",
"j. c #F6AC92",
"k. c #F5AE94",
"l. c #F6AF95",
"z. c #F4B197",
"x. c #F0B299",
"c. c #F4B299",
"v. c #F1B59D",
"b. c #F4B69E",
"n. c #F5BAA2",
"m. c #F5BCA7",
"M. c #F6BCA6",
"N. c #F6C2AC",
"B. c #F6C5B2",
"V. c #F6C6B3",
"C. c #F7CAB8",
"Z. c #F7CAB9",
"A. c #F7CBBA",
"S. c #F6CCBA",
"D. c #F7CEBC",
"F. c #F7CFBF",
"G. c #F7D0C3",
"H. c #F8D8CC",
"J. c #F8DFD3",
"K. c #FAE3D9",
"L. c #FAE4DB",
"P. c #F9E7DE",
"I. c #FAE8E0",
"U. c #FBF1EB",
"Y. c #FBF1EC",
"T. c #FCF1EC",
"R. c #FBF5F2",
"E. c #FDF9F6",
"W. c #FEFBFA",
"Q. c #FCFCFA",
"!. c #FDFDFD",
"~. c #FCFEFD",
"^. c #FEFEFE",
"/. c #FEFFFE",
/* pixels */
"                                                                                ",
"                                                                                ",
"                                                                                ",
"                            k.                                                  ",
"                          s.$                                                   ",
"                        C.* +                                                   ",
"                        K $ + N.                                                ",
"                        $ $ + ;.                                                ",
"                        j $ + d       v.                                        ",
"                        3.$ $ $ V.    ;.V.                                      ",
"                          v $ $ '     a.5.                                      ",
"                          G.$ $ f     a.M.                                      ",
"                            <.$ % L.  x.W.                                      ",
"                              g $ J.      I.d.I &.                              ",
"                              1.w     E.5.9 $ $                                 ",
"                              k.>.^.U.K + $ $ ;.                                ",
"                    6.c.P.    M.T.^.I + $ $ + S.                                ",
"                    S.$ $ ' Y.~.^.n.+ $ $ $ <                                   ",
"                      R $ $ D R.W.m . $ $ + b                                   ",
"                      h.$ $ + ,.G.+ + 6 $ $ a                                   ",
"                      z.$ $ ; $ Y + 6 ] + $ +                                   ",
"                      ` # $ + $ * + ( e.c $ + 2.                                ",
"                    K.9 + $ + 6 . C y.9.| + + 9                                 ",
"                    L $ $ + $ $ t #.y.e.9.V $ $ _                               ",
"                  f.+ $ z x $ $ ! u.e.t.9...6 $ +                               ",
"                  j . y +.[ + + O.q.t.e.q.q.B $ + h.                            ",
"                z.+ + ^ q.q.Q y q.q.e.e.e.9.) $ + _                             ",
"                R + + #.e.e.q.[ e.e.e.e.e.9.#.+ + D                             ",
"                N $ 9 q.e.e.u.t.e.e.t.e.e.q.e.6 + Z                             ",
"                v O 6 8.e.u.q.e.e.e.u.t.e.e.q.$ + L                             ",
"                I . O ( t.e.u.e.e.u.e.t.e.q.O.. $ <.                            ",
"                b.O . t O.u.q.u.t.t.e.u.e.q.! + . C.                            ",
"                  A . . s X.e.e.e.e.t.u.q.[ $ $ D                               ",
"                    g . O 6 ! #.e.e.e.O.Q % $ w H.                              ",
"                      G + $ + $ s l p . + * j D.                                ",
"                          n + + . O O + a H                                     ",
"                                %.$.i.                                          ",
"                                                                                ",
"                                                                                ",
"                                                                                "
};
