/* XPM */
static char *c6cf5fe7c47f4afff56ab4467295f08eglzzO420TkzkjqQB[] = {
/* columns rows colors chars-per-pixel */
"40 40 166 2 ",
"   c None",
".  c #250A4E",
"X  c #270B53",
"o  c #290D56",
"O  c #2B0E59",
"+  c #261252",
"@  c #2B1156",
"#  c #2D115C",
"$  c #31155C",
"%  c #33185F",
"&  c #381F61",
"*  c #362662",
"=  c #3B2265",
"-  c #312964",
";  c #3E2F64",
":  c #3F2769",
">  c #3C3B74",
",  c #462E6E",
"<  c #472F70",
"1  c #423E77",
"2  c #444177",
"3  c #45447A",
"4  c #49467B",
"5  c #4D497E",
"6  c #50477F",
"7  c #5C477E",
"8  c #585383",
"9  c #585980",
"0  c #615087",
"q  c #56719F",
"w  c #6D7495",
"e  c #647198",
"r  c #707695",
"t  c #737896",
"y  c #787A97",
"u  c #767A98",
"i  c #7C7C9A",
"p  c #5179A4",
"a  c #80749D",
"s  c #827D9E",
"d  c #6D8FB3",
"f  c #6AA1C6",
"g  c #6CA2CA",
"h  c #72A1C7",
"j  c #71A5CC",
"k  c #75AACD",
"l  c #78AECF",
"z  c #7AA4D5",
"x  c #7BAED1",
"c  c #7FA8DA",
"v  c #7FB1D4",
"b  c #8C82A8",
"n  c #958EAE",
"m  c #A39BB6",
"M  c #91A6BE",
"N  c #9EB7C6",
"B  c #9FB9C7",
"V  c #83ACD7",
"C  c #81B5D5",
"Z  c #85B9D6",
"A  c #8AB9D7",
"S  c #8BB2DD",
"D  c #87BAD8",
"F  c #8CBCD9",
"G  c #92B3DF",
"H  c #90BFDB",
"J  c #A3BAC7",
"K  c #A3BDC8",
"L  c #A9BEC8",
"P  c #8FB6E2",
"I  c #90B7E2",
"U  c #95BAE4",
"Y  c #9ABFE5",
"T  c #94C3DD",
"R  c #98C6DD",
"E  c #9EC8DD",
"W  c #AFC1CB",
"Q  c #B5C3CD",
"!  c #BCC6CD",
"~  c #B6CFDD",
"^  c #9BC2E5",
"/  c #9CC9E1",
"(  c #9EC3E9",
")  c #98D0E6",
"_  c #A3CDE3",
"`  c #AAC9E7",
"'  c #A3CBEB",
"]  c #A9CEEA",
"[  c #B3CDE7",
"{  c #B2CDE9",
"}  c #B8CFE8",
"|  c #A4D0E5",
" . c #AAD4E5",
".. c #A5D1E9",
"X. c #ABD3EE",
"o. c #A7D9EE",
"O. c #ADDBEF",
"+. c #B5DDE7",
"@. c #B5D5EE",
"#. c #BCD1E9",
"$. c #B3DDED",
"%. c #B8DEEF",
"&. c #AFD7F0",
"*. c #AADAF1",
"=. c #B0D7F0",
"-. c #BAD7F0",
";. c #B4DBF3",
":. c #B9DEF4",
">. c #B7E0ED",
",. c #B4E2F2",
"<. c #BBE1F6",
"1. c #BEE4F9",
"2. c #C3C7CD",
"3. c #C6C8CD",
"4. c #CAC8CF",
"5. c #CDC7D4",
"6. c #CCC9D3",
"7. c #CEC7D8",
"8. c #C3D5EC",
"9. c #CFDEEF",
"0. c #C1DEF6",
"q. c #C1E7EF",
"w. c #C1E9EF",
"e. c #C4E4F6",
"r. c #CAE6F6",
"t. c #C4E9F3",
"y. c #CBECF3",
"u. c #C3E5F8",
"i. c #C3E9FB",
"p. c #CCECFB",
"a. c #D2EEF5",
"s. c #CBF3FC",
"d. c #D6F2F6",
"f. c #DAF2F6",
"g. c #D4F3FB",
"h. c #DDF6FC",
"j. c #DCF8FB",
"k. c #E6EEF5",
"l. c #E0F3F7",
"z. c #E3F5FC",
"x. c #EDF7FB",
"c. c #EEF7FC",
"v. c #EBF5FC",
"b. c #E6F9F9",
"n. c #E3F8FC",
"m. c #EAFAFA",
"M. c #EEF9FB",
"N. c #EFF9FC",
"B. c #EFFAFD",
"V. c #ECFAFB",
"C. c #F1F7FD",
"Z. c #F0FDFB",
"A. c #F1FAFD",
"S. c #F2F8FE",
"D. c #F7F9FF",
"F. c #F3FDFD",
"G. c #F5FDFD",
"H. c #F7FEFD",
"J. c #F4FDFD",
"K. c #FAFEFD",
"L. c #FDFEFD",
"P. c #FDFEFE",
"I. c #FDFFFE",
"U. c #FEFFFE",
"Y. c #FDFDFE",
"T. c #F8FDFE",
/* pixels */
"                                                                                ",
"# # # # # # # O @ O o O o o X X o o X X . X . . . . . . . . . . . . . . . . . . ",
"# $ # # # # # O o o o o X o o o o X X X . . . . . . . . . . . . . . . . . . . . ",
"# $ # # # # O O @ # o o o X o o X o . . . . . . . . . . . . . . . . . . . . . . ",
"# O # # # O O & = : & # o o X X X X X X . . . . . X . . . . . . + . . . . . . . ",
"# & # # # O # < 7 a n b s s i i i y i y y y u u t t t u t r w w r 7 + . . . . . ",
"# # # # # # : 0 7.L.L.L.K.K.D.K.G.F.F.B.B.M.m.b.b.z.l.f.f.a.a.y.y.q.~ ; . . . . ",
"# # # # # # < m L.L.K.G.S.S.C.C.S.M.c.c.M.c.v.b.z.l.l.f.a.a.y.r.q.y.>.d . . . . ",
"# & # # O # , 5.K.L.k.9.8.#.#.} } } } { { { { { [ { { { ` ` ` ` ` r.] D . . . . ",
"# # # # # # = 6.L.K.#.G c z z z z z c z c z z z z z z z z z z z z 0.| D + . . . ",
"# # # # # O # 5.L.D.{ S S S P P G P P P P P P P P I I I I I S V V :.| D + . . . ",
"# # # # # # # 2.L.D.` I U U I U I I U G U U U U I I U I I I I I S <._ Z + X . . ",
"# # # # # # O 5.L.D.{ U U U Y Y U U Y Y Y Y U Y Y Y U U U U Y U U :./ Z + . . . ",
"# # # # # # O 7.K.S.@.Y Y Y Y Y Y Y Y Y Y Y Y Y U Y Y Y Y Y Y Y Y <./ C + . . . ",
"# # # # # O # 7.L.C.=.Y Y ( ( ( ( ( Y ( ( ( Y Y ( Y ( ( ( Y ( ' ^ ;./ v + . . . ",
"% # # # # O # L K.v.@.' ( ( ( ( ( ( ( ( ( ( ( ' ( ' ( ( ( Y ' Y ( ;./ v + . . . ",
"# # # # # O @ ! D.v.-.' ' ( ' ( ' ' ' ( ' ' ' ' ( ' ' ' ' ( ' ' ' %.T v + X . . ",
"& # # O O O @ ! S.v.-.' ' ' ' ' ' ' ' ' ' ' ' ' ' ' ' ' ' ' ' ' ' ;.T v + . . . ",
"O O O # O O # ! F.z.:.] X.X.' ] X.' X.' ' ' X.' ' ' X.' ' ' ' X.] $.T v + . . . ",
"# # # # O O # ! C.z.-.X.' X.X.X.X.X.X.X.X.X.X.X.X.X.X.X.X.X.X.X.X.;.T x + . . . ",
"# # # O O O @ Q M.z.:.@.&.*.X.X.X.X.X.X.X.X.X.X.=.X.X.X.X.X.X.X.X.;.T v + . . . ",
"# # O O O O @ Q b.f.-.&.=.*.&.=.=.=.=.=.=.=.=.=.;.X.;.=.-.=.=.;.=.;.T l + . . . ",
"# # # O O O # L n.f.0.;.;.;.;.;.;.;.;.;.;.;.;.;.;.=.;.;.;.;.;.;.;.*.H x + . . . ",
"# # # O O O # L d.p.1.:.:.:.;.:.:.:.:.:.:.:.;.:.:.:.:.;.:.:.;.;.;.$.H l + . . . ",
"# O # O O O O J y.y.e.:.:.1.:.:.1.:.:.:.1.:.:.<.:.:.:.<.<.:.:.1.:.*.H l X . . . ",
"# # O O O O O J y.y.u.<.:.1.1.1.1.1.1.1.1.1.1.1.:.:.1.1.1.<.1.1.1.*.H k + . . . ",
"O # O O O o # J y.r.u.1.1.1.1.1.1.1.i.1.1.1.i.1.u.1.1.1.1.1.1.1.i.*.F k + . . . ",
"# O O O O o O J y.r.i.u.i.i.i.i.i.u.i.p.p.p.p.p.p.p.i.u.i.1.i.i.i.*.F k + . . . ",
"# O O O o o O J y.t.i.i.p.p.g.g.h.h.h.h.h.n.h.n.h.h.h.j.g.g.p.i.i.*.F k + . . . ",
"O O O o o o # N w.r.p.g.h.h.n.n.n.n.z.z.n.n.n.n.n.n.n.h.h.h.h.g.s.o.F k + . . . ",
"O O O o o o @ N w.t.s.g.g.g.g.h.h.h.n.h.j.h.h.h.h.h.j.j.j.j.g.g.s.o.F j + . . . ",
"o # o o O o o M <.%.e.u.r.i.u.u.u.1.1.1.1.<.<.<.,.<.,.>.,.<.<.<.,.) A h . . . . ",
"O O o o X O X 8 $.X.%.;.%.%.%.%.>.>.$.>.>.O.O.O.o.,.<.>.O.+. .E x f k q . . . . ",
"O O o @ X X o O e @. .@.X. ._ _ _ _ E / / R T T T Z Z x l k j j j f p + . . . . ",
"o o O o o o o X o * 5 5 5 5 5 4 4 4 4 4 3 2 2 2 2 1 2 > > > > > > - . . . . . . ",
"@ # o o X o o X X X X X . . . . . . . . . . . . . . . . . . . . . . . . . . . . ",
"O o o o o o X o X X X . . . . . . . . . . . . . . . . . . . . . . . . . . . . . ",
"o o o o o o o X X X X @ . . . . . . . . . . . . . . . . . . . . . . . . . . . . ",
"O o o o o o o o X . X . . . . . X . . . . . X . . . . . . . . . . . . . . . . . ",
"                                                                                "
};
