/* XPM */
static char *_c0ee4a8b58d4647d60a1375476f64e3CAv5NvKW4wAUcPhb[] = {
/* columns rows colors chars-per-pixel */
"40 40 91 1 ",
"  c None",
". c black",
"X c #060101",
"o c #1A0605",
"O c #1E0705",
"+ c #240906",
"@ c #3C0E0C",
"# c #41100D",
"$ c #43110C",
"% c #49130D",
"& c #541610",
"* c #5F1713",
"= c #631912",
"- c #731C17",
"; c #761D18",
": c #7E1F19",
"> c #801F1A",
", c #882319",
"< c #8E211B",
"1 c #8E221B",
"2 c #8B241A",
"3 c #8D211C",
"4 c #8D221C",
"5 c #8D231C",
"6 c #8D221D",
"7 c #8D231D",
"8 c #8E221C",
"9 c #8E221D",
"0 c #8E231D",
"q c #8F231D",
"w c #90221C",
"e c #90231D",
"r c #91231D",
"t c #92241D",
"y c #94241E",
"u c #96251E",
"i c #97251E",
"p c #9A261F",
"a c #9B261F",
"s c #9D271F",
"d c #9E271F",
"f c #A02820",
"g c #A32920",
"h c #A52920",
"j c #A82A21",
"k c #AA2B21",
"l c #AC2B21",
"z c #AC2C20",
"x c #AE2C22",
"c c #AF2C22",
"v c #B22C20",
"b c #B02C22",
"n c #B42D23",
"m c #B92F24",
"M c #BA2F24",
"N c #BB2F24",
"B c #BC3024",
"V c #BD3024",
"C c #BE3025",
"Z c #BF3025",
"A c #C13125",
"S c #C23125",
"D c #C33225",
"F c #C53225",
"G c #C53226",
"H c #C73326",
"J c #C93326",
"K c #CD3125",
"L c #CB3427",
"P c #CE3527",
"I c #D03426",
"U c #D23628",
"Y c #D33628",
"T c #D43728",
"R c #D53728",
"E c #D93829",
"W c #DA3829",
"Q c #DD3929",
"! c #DD392A",
"~ c #DE392A",
"^ c #DF3A2A",
"/ c #E3392A",
"( c #E03A2A",
") c #E13A2A",
"_ c #E23A2A",
"` c #E33A2A",
"' c #E23B2A",
"] c #E23A2B",
"[ c #E33A2B",
"{ c #E23B2B",
"} c #E33B2B",
/* pixels */
"                         .              ",
"                    0    ..             ",
"                    0<  ...             ",
"                    000 ....            ",
"                    000:X...            ",
"                    0000@...            ",
"                    0000;...            ",
"                    <0000o..            ",
"                     <000#..            ",
"                     <000*..            ",
"                      000-..            ",
"                       00>..            ",
"                        0u=z}           ",
"                        K}}}}}}}        ",
"                        }}}}}}}}}       ",
"                       /}}}}}^&2}}      ",
"                       }}}}}}}}^}}}     ",
"                       }}}}}}}}}}}}}    ",
"                       AT}}}}}}}}}}     ",
"                      0<0ixFE}}}}}      ",
"                  0<50000000<snP        ",
"              00000000000000000<        ",
"            20000000000000000000        ",
"          0000000000000000000000        ",
"         00000000000000000000000        ",
"        00000000000000000pu00000        ",
"       000000000ida000000mWs0002        ",
"      <000000iZE}}}^Ay000F}Wwwu>        ",
"      000000j^}}}}}}}Y000Y}}j990        ",
"      00000Z}}}}}}}}}}x00~}}nw00        ",
"      000yL}[}}}}}}}}}A0u}[}n00         ",
"      000J}}}}}}}}}}}}G0g}[[j0          ",
"      00Z}}}}}}}}}}}}}m0x}}^y           ",
"      0n^}}}}}}}}}}}}}g0Z}}x            ",
"   ...w^{}}}}}}}}}}}}I00J}z             ",
"   ...$}{{}}}}}}}}}}}g0<,+.             ",
"    ...%I}}}}}}}}}}}N0   ...            ",
"     ...OW}}}}}}}}}}I     ..            ",
"            }}}}}}}}}}}    ...          ",
"           }}}}}}}}}}}}}    ...         "
};
