/* XPM */
static char *_fa71d01d1fc4e6880190326acde2f82aVVkLzIKq1tqtkKi[] = {
/* columns rows colors chars-per-pixel */
"40 40 185 2 ",
"   c None",
".  c #2F1457",
"X  c #2F1458",
"o  c #2F1B5E",
"O  c #311357",
"+  c #31165D",
"@  c #32195F",
"#  c #331760",
"$  c #351964",
"%  c #381B67",
"&  c #371D68",
"*  c #391C68",
"=  c #281F7F",
"-  c #2E1971",
";  c #2B266B",
":  c #27286A",
">  c #28296C",
",  c #312265",
"<  c #31276E",
"1  c #332671",
"2  c #2F3070",
"3  c #273778",
"4  c #2C377D",
"5  c #363276",
"6  c #2E407E",
"7  c #1F2491",
"8  c #26248C",
"9  c #252A8F",
"0  c #292588",
"q  c #262790",
"w  c #242A90",
"e  c #1F2FA6",
"r  c #1E33A7",
"t  c #1E3CA7",
"y  c #1D3BA9",
"u  c #202BA4",
"i  c #2F4584",
"p  c #294790",
"a  c #284D92",
"s  c #254892",
"d  c #295393",
"f  c #2B5B94",
"g  c #315F99",
"h  c #2C6197",
"j  c #2D669B",
"k  c #1F41A7",
"l  c #1B46A8",
"z  c #1D4BA9",
"x  c #1C53A8",
"c  c #2051A5",
"v  c #2D6DA1",
"b  c #2E71A4",
"n  c #123FCA",
"m  c #0F3BD9",
"M  c #0D3CD7",
"N  c #103ED8",
"B  c #133CD4",
"V  c #1D45C7",
"C  c #1D45C8",
"Z  c #1E54CF",
"A  c #0F46DC",
"S  c #0F4ADE",
"D  c #1144DC",
"F  c #104BDF",
"G  c #1F4CD1",
"H  c #1B57D8",
"J  c #204FD8",
"K  c #2453DF",
"L  c #1D6CD9",
"P  c #286ED7",
"I  c #0E4FE0",
"U  c #114DE1",
"Y  c #0E54E1",
"T  c #0E5CE5",
"R  c #1355E4",
"E  c #155CE4",
"W  c #2255E4",
"Q  c #2457EA",
"!  c #2559EF",
"~  c #245BE3",
"^  c #265DF1",
"/  c #0F60E7",
"(  c #1764E6",
")  c #176AE6",
"_  c #186AE7",
"`  c #1166EA",
"'  c #126CE9",
"]  c #196EE9",
"[  c #1373E4",
"{  c #117CE2",
"}  c #1473E8",
"|  c #1A7AEC",
" . c #1B6EF5",
".. c #1D73F4",
"X. c #1D7CF2",
"o. c #2868E9",
"O. c #2072EF",
"+. c #2D72EB",
"@. c #337EEE",
"#. c #2664F1",
"$. c #2862F0",
"%. c #276DF3",
"&. c #286AF5",
"*. c #2674F4",
"=. c #2A73F3",
"-. c #267CF5",
";. c #2D7AF5",
":. c #257EFB",
">. c #2A7BF9",
",. c #2075F8",
"<. c #3287D7",
"1. c #1184E2",
"2. c #1D83ED",
"3. c #1388E2",
"4. c #1E84F0",
"5. c #1E9EFC",
"6. c #189CF3",
"7. c #228BEE",
"8. c #3A88ED",
"9. c #3A98EB",
"0. c #2684F6",
"q. c #2789F7",
"w. c #2480FB",
"e. c #278DF8",
"r. c #2C88F5",
"t. c #368CF5",
"y. c #3A8DF5",
"u. c #2595F7",
"i. c #2692F9",
"p. c #269AFA",
"a. c #2A9DFB",
"s. c #3A93F6",
"d. c #3E9AF6",
"f. c #3596F9",
"g. c #3895F9",
"h. c #329AFA",
"j. c #15ABF9",
"k. c #15A5F7",
"l. c #15B3FA",
"z. c #18B9FB",
"x. c #3BACEC",
"c. c #24A3FB",
"v. c #2AA6FC",
"b. c #21ADFD",
"n. c #2CACFD",
"m. c #34A7FF",
"M. c #32ADFE",
"N. c #3DADFA",
"B. c #2EB3FD",
"V. c #27BBFE",
"C. c #2ABBFD",
"Z. c #24B5FE",
"A. c #31B6FE",
"S. c #32BCFE",
"D. c #429EF6",
"F. c #43A3F6",
"G. c #45AAF6",
"H. c #45BAF7",
"J. c #1CC2E8",
"K. c #1CC3FE",
"L. c #1ECBFD",
"P. c #1DD5FD",
"I. c #33D7EA",
"U. c #22C4FD",
"Y. c #29C4FE",
"T. c #2CCCFF",
"R. c #21D4FF",
"E. c #23DCFF",
"W. c #2EDEFF",
"Q. c #2DD4FE",
"!. c #37D9F8",
"~. c #19E6FF",
"^. c #27E4FF",
"/. c #26EFFF",
"(. c #31E8FF",
"). c #27F5FF",
"_. c #35F7FE",
"`. c #4AC6F8",
"'. c #53CBF5",
"]. c #42D6F7",
"[. c #4AD6F6",
"{. c #58D2F7",
"}. c #56D6F8",
"|. c #56D0F6",
" X c #4AE1FE",
/* pixels */
"                                                                                ",
"                                                                                ",
"X X X O X X X X X X O . X . X X X X + + + + # + # # # # # $ # % % $ & & * * * 1 ",
"X X X X X X X X X . X . + . X X X X + + + + # # # # @ # $ # # # $ $ & $ * * * & ",
"X X O O o @ o . . . . O . O . . X X O . + @ + + # @ # @ $ # $ $ $ $ & % * * & & ",
"X X o , 2 4 6 3 > : > : : : : : : : ; ; < < ; ; < 1 1 1 < # # # % $ & % * * & & ",
"X . o 2 h J.~.P.P.L.L.U.U.U.U.V.C.C.C.C.C.B.B.B.A.M.M.M.m.<.5 % & $ % % % * & & ",
"X X , i I.).~.^.!.].[.[.[.}.}.}.}.{.}.|.'.'.'.H.A.n.M.M.m.N.P % $ & % % % * * & ",
"X X , j )._. X`.H.G.F.F.F.F.F.D.d.d.D.s.s.s.s.g.y.y.y.t.g.7.T 0 # # & % % * % & ",
"X X , b /.(.x.L Z C C C V V V V V V V V V V V V V V V C +.| ( 9 % % & & % * * & ",
"X X X j ^.(.9.H J R W Q ! ! ! ! Q ! ! ! ! ! ! Q W W J G +.| T 9 # & # % % * * % ",
"X X X h ^.Q.8.~ ^ ^ ^ ^ ! ! #.! ^ ^ ^ ^ ^ ^ ! ! ^ ^ ^ W +.[ T 9 % # & % % * * & ",
"X X X h E.Q.8.$.$.$.! #.#.#.! #.$.#.#.! ! #.#.#.#.#.! #.=.} R 9 @ % % % % * * & ",
"X X X h E.T.y.&.&.#.&.&.#.#.#.&.%.#.%.#.&.#.#.#.#.%.#.&.;.} Y 9 + % % % % * * & ",
"X X X f E.T.y.&.&.&.&.&.%.%.%.%.&.%.&.%.&.%.&.%.%.#.&.&.;.} Y 9 # % % % % % * & ",
"X X X f R.T.y.=.o.=.*.%.%.%.%.%.%.%.%.%.*.%.%.%.=.%.%.%.>.} Y 9 @ % # % % * * & ",
". . . f R.Y.y.*.*.*.=.*.*.*.=.*.*.*.*.*.*.*.*.*.*.*.*.*.;.] Y 9 @ $ % % % % * * ",
". O . f P.Y.s.*.*.*.*.,.*.*.*.*.*.*.*.*.*.*.*.*.*.*.*.*.>.) Y 8 @ % % % % % % & ",
". O . f R.V.s.-.-.-.-.-.-.-.-.-.-.-.-.-.-.-.-.-.-.-.-.-.>.) I q $ % % & % % % % ",
"X X O f L.V.f.-.-.-.-.-.-.-.-.-.-.-.-.-.-.-.-.-.-.-.-.-.>.) U q # # # # % % % % ",
"X X . f L.V.f.0.0.0.0.0.0.0.0.0.0.0.0.0.0.0.0.0.0.0.0.0.:.( F 8 # # % % $ % % % ",
"X X . d K.V.g.0.0.0.0.0.0.0.0.0.0.0.0.0.0.0.0.0.0.0.0.0.:.( F 9 # # % % $ % % % ",
". O O d K.Z.f.q.q.q.q.q.q.q.q.q.q.q.q.r.q.q.q.q.e.0.q.q.:.( F 8 # % $ % $ % % % ",
"X . . d z.b.f.e.q.e.e.e.e.e.e.e.e.e.e.e.e.e.e.e.e.e.q.e.:.E A 8 # $ # $ $ % % % ",
"X X . a z.j.g.i.e.i.i.e.i.i.i.e.i.i.i.i.i.i.i.i.i.i.i.e.:.( A 8 @ $ $ $ $ $ % % ",
"X X . d l.b.f.i.u.u.u.u.u.u.u.i.u.u.u.u.u.u.u.u.u.u.i.p.:.E D 8 $ @ @ $ % % % % ",
"O X . a l.v.f.p.p.p.p.p.a.p.p.p.u.p.p.p.p.p.p.p.p.p.p.p.:.E D 8 $ @ $ $ @ $ % % ",
"X X X a j.k.h.a.c.p.p.v.v.n.v.n.n.M.M.M.n.v.v.v.v.a.p.p.X.H A 8 @ @ @ @ % % $ % ",
". . . a j.k.f.v.v.n.B.B.A.A.A.A.A.S.A.A.A.A.B.B.B.n.v.c.w.E D 8 # # $ $ # % % % ",
". . . a j.p.a.n.B.B.B.C.S.S.Y.S.Y.S.S.S.S.S.A.A.B.A.n.n.w.R N 8 $ @ @ $ # # % # ",
". X . p k.5.f.a.a.a.a.a.a.a.a.a.a.a.a.a.u.p.p.u.i.i.i.i.,.F N 8 @ @ # $ # $ % % ",
"X X . : 6.3.2.0.0.2.2.-.| ,..... ... . .O.r.;.%.;.8.@.o.D n B - @ @ # # # $ % $ ",
"X X X O s 1.1.1.{ { [ [ [ ' [ ' ' ' ` ` T T Y Y U U N m m m 7 + # # # # @ $ $ $ ",
"X X X X o 0 x x x z z l z z l l k t y y y r r r r e e e 7 0 # # # # # # $ $ $ @ ",
"X X X X X . X O . O . . X X . X X X X X X . . . X X X # # # # + # # # # # # $ $ ",
"X X X X X X . . . . . . . . . . X X X X X X X X X X + + # # + + # # # # # @ $ # ",
"X X X + . . X X X X X X X X X X X X X X + X X X X X @ + + + + # # # # % # # # $ ",
"                                                                                ",
"                                                                                ",
"                                                                                "
};
